<?xml version="1.0" encoding="utf-8"?>
<!-- Generator: Adobe Illustrator 18.1.1, SVG Export Plug-In . SVG Version: 6.00 Build 0)  -->
<svg version="1.1" id="Layer_1" xmlns="http://www.w3.org/2000/svg" xmlns:xlink="http://www.w3.org/1999/xlink" x="0px" y="0px"
	 viewBox="0 0 800 800" enable-background="new 0 0 800 800" xml:space="preserve">
<circle fill="#23B99F" cx="399" cy="396.8" r="366.5"/>
<g>
	<path fill="none" stroke="#FFFFFF" stroke-width="20" stroke-miterlimit="10" d="M252,168.9h138.5c63.1,0,108.9,9,137.4,26.9
		c28.5,18,42.8,46.5,42.8,85.7c0,26.6-6.2,48.4-18.7,65.5c-12.5,17-29.1,27.3-49.8,30.7v3c28.2,6.3,48.6,18.1,61,35.3
		c12.5,17.3,18.7,40.2,18.7,68.8c0,40.6-14.7,72.3-44,95c-29.3,22.7-69.2,34.1-119.5,34.1H252V168.9z M346.3,345.2h54.8
		c25.6,0,44.1-4,55.6-11.9c11.5-7.9,17.2-21,17.2-39.3c0-17-6.2-29.3-18.7-36.7c-12.5-7.4-32.2-11.1-59.2-11.1h-49.6V345.2z
		 M346.3,420v116h61.5c26,0,45.2-5,57.5-14.9c12.4-9.9,18.6-25.2,18.6-45.7c0-36.9-26.4-55.4-79.2-55.4H346.3z"/>
</g>
</svg>
