<?xml version="1.0" encoding="utf-8"?>
<!-- Generator: Adobe Illustrator 18.1.1, SVG Export Plug-In . SVG Version: 6.00 Build 0)  -->
<svg version="1.1" id="Layer_1" xmlns="http://www.w3.org/2000/svg" xmlns:xlink="http://www.w3.org/1999/xlink" x="0px" y="0px"
	 viewBox="0 0 298.4 361.6" enable-background="new 0 0 298.4 361.6" xml:space="preserve">
<polygon fill="#D0D2D3" points="0,285 151.8,208.2 151.8,0 0,76.9 "/>
<path fill="#FDB928" d="M0,76.8L142.3,151c0,0,9.4,5.4,18.9,0c9.6-5.4,132.9-68.8,132.9-68.8s9.5-5.4,0-10.9
	C284.7,65.8,151.8,0,151.8,0L0,76.8z"/>
<path fill="#0EB89E" d="M0,285l142.3,74.2c0,0,9.4,5.4,18.9,0c9.6-5.4,132.9-68.8,132.9-68.8s9.5-5.4,0-10.9
	c-9.5-5.5-142.4-71.3-142.4-71.3L0,285z"/>
</svg>
