<?xml version="1.0" encoding="utf-8"?>
<!-- Generator: Adobe Illustrator 18.1.1, SVG Export Plug-In . SVG Version: 6.00 Build 0)  -->
<svg version="1.1" id="Layer_1" xmlns="http://www.w3.org/2000/svg" xmlns:xlink="http://www.w3.org/1999/xlink" x="0px" y="0px"
	 viewBox="0 0 800 800" enable-background="new 0 0 800 800" xml:space="preserve">
<circle fill="#23B99F" cx="399" cy="396.8" r="366.5"/>
<path fill="none" stroke="#FFFFFF" stroke-width="8" stroke-miterlimit="10" d="M184.4,215.2c36.2,53.7,115.7,113.3,208.6,113.5
	c-11.5-124.9,103-168.1,182.5-100.5c35-14.2,68.2-24.4,68.2-24.4l-44.5,52.8l57-7.9c0,0-14.4,11.7-56,45.8
	c14.1,215.3-232,420.2-440.2,272.6c72.9,5.6,132.7-23,140.7-43.6c-60.2-0.7-98-70.6-98-70.6s33,0,50.1,0
	c-76.7-17-86.1-101.5-86.1-101.5l48.8,4.2C215.5,355.7,134.4,304.9,184.4,215.2z"/>
</svg>
