<?xml version="1.0" encoding="utf-8"?>
<!-- Generator: Adobe Illustrator 18.1.1, SVG Export Plug-In . SVG Version: 6.00 Build 0)  -->
<svg version="1.1" id="Layer_1" xmlns="http://www.w3.org/2000/svg" xmlns:xlink="http://www.w3.org/1999/xlink" x="0px" y="0px"
	 viewBox="0 0 800 800" enable-background="new 0 0 800 800" xml:space="preserve">
<circle fill="#23B99F" cx="398.1" cy="396.3" r="366.5"/>
<g>
	<polygon fill="none" stroke="#FFFFFF" stroke-width="4" stroke-miterlimit="10" points="697.6,290.7 671,321.1 671,351.4 
		125.2,351.4 125.2,321.1 98.6,290.7 	"/>
	<rect x="129.4" y="352.3" fill="none" stroke="#FFFFFF" stroke-width="4" stroke-miterlimit="10" width="28.7" height="226.3"/>
	<rect x="224.9" y="352.3" fill="none" stroke="#FFFFFF" stroke-width="4" stroke-miterlimit="10" width="28.7" height="226.3"/>
	<rect x="320.4" y="352.3" fill="none" stroke="#FFFFFF" stroke-width="4" stroke-miterlimit="10" width="28.7" height="226.3"/>
	<rect x="448" y="352.3" fill="none" stroke="#FFFFFF" stroke-width="4" stroke-miterlimit="10" width="28.7" height="226.3"/>
	<rect x="543.5" y="352.3" fill="none" stroke="#FFFFFF" stroke-width="4" stroke-miterlimit="10" width="28.7" height="226.3"/>
	<rect x="639" y="352.3" fill="none" stroke="#FFFFFF" stroke-width="4" stroke-miterlimit="10" width="28.7" height="226.3"/>
	<g>
		<polygon fill="none" stroke="#FFFFFF" stroke-width="4" stroke-miterlimit="10" points="312.5,256.6 126.2,256.6 139.5,273.7 
			139.5,290.7 312.5,290.7 312.5,256.6 		"/>
		<polygon fill="none" stroke="#FFFFFF" stroke-width="4" stroke-miterlimit="10" points="483.7,256.6 483.7,290.7 656.7,290.7 
			656.7,273.7 670,256.6 		"/>
		<polygon fill="none" stroke="#FFFFFF" stroke-width="4" stroke-miterlimit="10" points="483.7,239.2 312.5,239.2 312.5,256.6 
			312.5,290.7 483.7,290.7 483.7,256.6 		"/>
	</g>
	<polyline fill="none" stroke="#FFFFFF" stroke-width="4" stroke-miterlimit="10" points="312.5,256.6 312.5,290.7 483.7,290.7 
		483.7,256.6 	"/>
	<path fill="none" stroke="#FFFFFF" stroke-width="4" stroke-miterlimit="10" d="M389.4,187.8v-44.7c0-8.3,3.9-15,8.6-15h0
		c4.8,0,8.6,6.8,8.6,15v44.7H389.4z"/>
	<polygon fill="none" stroke="#FFFFFF" stroke-width="4" stroke-miterlimit="10" points="448.6,239.2 347.6,239.2 334.3,187.8 
		461.9,187.8 	"/>
</g>
</svg>
