<?xml version="1.0" encoding="utf-8"?>
<!-- Generator: Adobe Illustrator 18.1.1, SVG Export Plug-In . SVG Version: 6.00 Build 0)  -->
<svg version="1.1" id="Layer_1" xmlns="http://www.w3.org/2000/svg" xmlns:xlink="http://www.w3.org/1999/xlink" x="0px" y="0px"
	 viewBox="0 0 800 800" enable-background="new 0 0 800 800" xml:space="preserve">
<circle fill="#23B99F" cx="398.7" cy="397.2" r="366.5"/>
<g>
	<path fill="none" stroke="#FFFFFF" stroke-width="8" stroke-miterlimit="10" d="M446.9,202c0,7.6-2.3,14.8-6.2,21
		c-40.4,0-40.4,0-83.7,0c-4.2-6.3-6.6-13.2-6.6-21c0-23.6,21.6-42.7,48.3-42.7C425.3,159.3,446.9,178.4,446.9,202z"/>
	<polygon fill="none" stroke="#FFFFFF" stroke-width="8" stroke-miterlimit="10" points="446.8,621.1 350.5,621.1 350.5,534.8 
		398.7,477.3 446.8,534.8 	"/>
	<g>
		<rect x="224.9" y="224.2" fill="none" stroke="#FFFFFF" stroke-width="8" stroke-miterlimit="10" width="80" height="146.8"/>
		<rect x="492.4" y="224.2" fill="none" stroke="#FFFFFF" stroke-width="8" stroke-miterlimit="10" width="80" height="146.8"/>
		<rect x="358.7" y="224.2" fill="none" stroke="#FFFFFF" stroke-width="8" stroke-miterlimit="10" width="80" height="146.8"/>
	</g>
	<rect x="192.2" y="373.5" fill="none" stroke="#FFFFFF" stroke-width="8" stroke-miterlimit="10" width="412.9" height="30.2"/>
	<line fill="none" stroke="#FFFFFF" stroke-width="8" stroke-miterlimit="10" x1="398.7" y1="103.4" x2="398.7" y2="159.3"/>
	<line fill="none" stroke="#FFFFFF" stroke-width="8" stroke-miterlimit="10" x1="366" y1="131.3" x2="431.4" y2="131.3"/>
	<polygon fill="none" stroke="#FFFFFF" stroke-width="8" stroke-miterlimit="10" points="613.1,621.1 184.2,621.1 224.9,406.1 
		572.4,406.1 	"/>
</g>
</svg>
