<?xml version="1.0" encoding="utf-8"?>
<!-- Generator: Adobe Illustrator 18.1.1, SVG Export Plug-In . SVG Version: 6.00 Build 0)  -->
<svg version="1.1" id="Layer_1" xmlns="http://www.w3.org/2000/svg" xmlns:xlink="http://www.w3.org/1999/xlink" x="0px" y="0px"
	 viewBox="0 0 800 800" enable-background="new 0 0 800 800" xml:space="preserve">
<circle fill="#23B99F" cx="398.7" cy="394.7" r="366.5"/>
<g>
	<rect x="353.5" y="420.2" fill="none" stroke="#FFFFFF" stroke-width="8" stroke-miterlimit="10" width="90.8" height="219.3"/>
	<rect x="236.7" y="241" fill="none" stroke="#FFFFFF" stroke-width="8" stroke-miterlimit="10" width="116.9" height="398.5"/>
	<path fill="none" stroke="#FFFFFF" stroke-width="8" stroke-miterlimit="10" d="M362.5,209.5c0,10.7-3.2,20.7-8.7,29.3
		c-56.4,0-56.4,0-116.9,0c-5.8-8.8-9.2-18.4-9.2-29.3c0-32.9,30.2-59.6,67.4-59.6S362.5,176.6,362.5,209.5z"/>
	<circle fill="none" stroke="#FFFFFF" stroke-width="8" stroke-miterlimit="10" cx="295.1" cy="448.8" r="30.6"/>
	<polygon fill="none" stroke="#FFFFFF" stroke-width="8" stroke-miterlimit="10" points="317,370.3 273.3,370.3 273.3,318.5 
		295.1,284 317,318.5 	"/>
	<rect x="444.5" y="241" fill="none" stroke="#FFFFFF" stroke-width="8" stroke-miterlimit="10" width="116.9" height="398.5"/>
	<path fill="none" stroke="#FFFFFF" stroke-width="8" stroke-miterlimit="10" d="M570.3,209.5c0,10.7-3.2,20.7-8.7,29.3
		c-56.4,0-56.4,0-116.9,0c-5.8-8.8-9.2-18.4-9.2-29.3c0-32.9,30.2-59.6,67.4-59.6S570.3,176.6,570.3,209.5z"/>
	<circle fill="none" stroke="#FFFFFF" stroke-width="8" stroke-miterlimit="10" cx="502.9" cy="448.8" r="30.6"/>
	<polygon fill="none" stroke="#FFFFFF" stroke-width="8" stroke-miterlimit="10" points="524.8,370.3 481.1,370.3 481.1,318.5 
		502.9,284 524.8,318.5 	"/>
	<polygon fill="none" stroke="#FFFFFF" stroke-width="8" stroke-miterlimit="10" points="425.2,639.4 372.7,639.4 372.7,582.2 
		398.9,544 425.2,582.2 	"/>
</g>
</svg>
